<svg width="48" height="48" viewBox="0 0 48 48" fill="none" xmlns="http://www.w3.org/2000/svg">
<rect width="48" height="48" rx="24" fill="#ECEDBD" fill-opacity="0.7"/>
<path d="M24 30.4168H24.0116M19.5666 35.6668H28.4333C29.7401 35.6668 30.3935 35.6668 30.8926 35.4125C31.3317 35.1888 31.6886 34.8319 31.9123 34.3928C32.1666 33.8937 32.1666 33.2403 32.1666 31.9335V16.0668C32.1666 14.76 32.1666 14.1066 31.9123 13.6075C31.6886 13.1685 31.3317 12.8115 30.8926 12.5878C30.3935 12.3335 29.7401 12.3335 28.4333 12.3335H19.5666C18.2599 12.3335 17.6065 12.3335 17.1073 12.5878C16.6683 12.8115 16.3113 13.1685 16.0876 13.6075C15.8333 14.1066 15.8333 14.76 15.8333 16.0668V31.9335C15.8333 33.2403 15.8333 33.8937 16.0876 34.3928C16.3113 34.8319 16.6683 35.1888 17.1073 35.4125C17.6065 35.6668 18.2599 35.6668 19.5666 35.6668ZM24.5833 30.4168C24.5833 30.739 24.3221 31.0002 24 31.0002C23.6778 31.0002 23.4166 30.739 23.4166 30.4168C23.4166 30.0947 23.6778 29.8335 24 29.8335C24.3221 29.8335 24.5833 30.0947 24.5833 30.4168Z" stroke="black" stroke-width="2" stroke-linecap="round" stroke-linejoin="round"/>
</svg>
